<svg width="18" height="15" viewBox="0 0 18 15" fill="none" xmlns="http://www.w3.org/2000/svg">
<path d="M16.7024 1.22981C16.0213 1.71025 15.2672 2.07771 14.469 2.31804C14.0407 1.8255 13.4714 1.4764 12.8382 1.31795C12.2049 1.15951 11.5383 1.19936 10.9285 1.43213C10.3186 1.66489 9.79496 2.07934 9.42834 2.61941C9.06171 3.15948 8.86979 3.79912 8.87855 4.45182V5.16307C7.6286 5.19549 6.39004 4.91827 5.27318 4.35611C4.15631 3.79396 3.1958 2.96431 2.47721 1.94107C2.47721 1.94107 -0.367832 8.34241 6.03351 11.1874C4.56869 12.1818 2.8237 12.6803 1.05469 12.61C7.45603 16.1663 15.2799 12.61 15.2799 4.43048C15.2792 4.23236 15.2602 4.03473 15.223 3.84013C15.9489 3.12424 16.4612 2.22039 16.7024 1.22981V1.22981Z" stroke="white" stroke-width="1.42252" stroke-linecap="round" stroke-linejoin="round"/>
</svg>
