<svg width="29" height="36" viewBox="0 0 29 36" fill="none" xmlns="http://www.w3.org/2000/svg">
<path d="M8.20103 -0.0829194L6.56822 0.40966C5.1119 0.848346 3.81124 1.694 2.81939 2.84706C1.82753 4.00011 1.18578 5.41256 0.969693 6.91809C0.292397 11.6341 1.80662 17.1482 5.45763 23.4719C9.09953 29.7797 13.1086 33.8435 17.5213 35.6222C18.9391 36.1937 20.4912 36.3459 21.993 36.0609C23.4948 35.7759 24.8833 35.0656 25.9932 34.0145L27.2314 32.8423C28.0337 32.0824 28.5328 31.0571 28.636 29.9569C28.7392 28.8568 28.4394 27.7565 27.7924 26.8607L24.7001 22.5734C24.2821 21.9946 23.6934 21.5612 23.0165 21.3338C22.3397 21.1064 21.6087 21.0965 20.926 21.3055L16.2488 22.7354L16.1279 22.7582C15.6125 22.8334 14.4244 21.7183 12.9421 19.1505C11.3914 16.4641 11.0676 14.8929 11.4963 14.4869L13.8771 12.268C14.7465 11.457 15.3402 10.3941 15.575 9.22854C15.8097 8.06295 15.6737 6.85312 15.1861 5.76874L13.681 2.41418C13.2269 1.40372 12.4206 0.593055 11.4126 0.133543C10.4046 -0.325969 9.26387 -0.402912 8.20331 -0.0829194H8.20103ZM11.5989 3.34917L13.1063 6.70373C13.3994 7.35418 13.4814 8.08013 13.3407 8.77958C13.2 9.47902 12.8437 10.1168 12.3218 10.6033L9.93645 12.8245C8.40855 14.268 8.91481 16.7377 10.9649 20.2907C12.8965 23.6339 14.657 25.2849 16.5475 24.9976L16.8303 24.9383L21.5919 23.4856C21.8195 23.4157 22.0633 23.4188 22.289 23.4945C22.5148 23.5701 22.7112 23.7146 22.8507 23.9075L25.943 28.1948C26.2668 28.6428 26.4169 29.1931 26.3653 29.7435C26.3137 30.2938 26.0639 30.8067 25.6625 31.1867L24.4242 32.3589C23.6314 33.1092 22.6398 33.6162 21.5674 33.8195C20.4949 34.0228 19.3866 33.914 18.3741 33.506C14.5019 31.9461 10.8418 28.2358 7.43251 22.3317C4.01639 16.4139 2.63443 11.3809 3.22735 7.24191C3.3816 6.16624 3.84006 5.15706 4.54872 4.33325C5.25738 3.50944 6.18673 2.90532 7.22727 2.59206L8.86236 2.09948C9.39247 1.94019 9.96242 1.97914 10.4659 2.20908C10.9694 2.43901 11.3721 2.84423 11.5989 3.34917V3.34917Z" fill="#0395A4"/>
</svg>
